<svg xmlns="http://www.w3.org/2000/svg" viewBox="0 0 200 200">
    <!-- Subtle outer glow -->
    <filter id="glow" x="-50%" y="-50%" width="200%" height="200%">
        <feGaussianBlur stdDeviation="4" result="blur" />
        <feComposite in="SourceGraphic" in2="blur" operator="over" />
    </filter>

    <!-- Gradient definitions -->
    <defs>
        <linearGradient id="sunGradient" x1="0%" y1="0%" x2="100%" y2="100%">
            <stop offset="0%" stop-color="#FFDD00" />
            <stop offset="100%" stop-color="#FF8800" />
        </linearGradient>
        <linearGradient id="coreGradient" x1="30%" y1="30%" x2="70%" y2="70%">
            <stop offset="0%" stop-color="#FFF3AA" />
            <stop offset="100%" stop-color="#FFDD00" />
        </linearGradient>
    </defs>

    <!-- Sun circle with gradient -->
    <circle cx="100" cy="100" r="38" fill="url(#sunGradient)" filter="url(#glow)" />

    <!-- Sun rays - more elegant and varied -->
    <g>
        <!-- Long rays -->
        <g stroke="#FF9500" stroke-width="3" stroke-linecap="round">
            <line x1="100" y1="40" x2="100" y2="15" />
            <line x1="100" y1="160" x2="100" y2="185" />
            <line x1="40" y1="100" x2="15" y2="100" />
            <line x1="160" y1="100" x2="185" y2="100" />
        </g>

        <!-- Medium rays -->
        <g stroke="#FF9500" stroke-width="2.5" stroke-linecap="round">
            <line x1="129" y1="71" x2="150" y2="50" />
            <line x1="129" y1="129" x2="150" y2="150" />
            <line x1="71" y1="129" x2="50" y2="150" />
            <line x1="71" y1="71" x2="50" y2="50" />
        </g>

        <!-- Short decorative rays -->
        <g stroke="#FFAA00" stroke-width="2" stroke-linecap="round">
            <line x1="115" y1="55" x2="125" y2="35" />
            <line x1="145" y1="85" x2="165" y2="75" />
            <line x1="145" y1="115" x2="165" y2="125" />
            <line x1="115" y1="145" x2="125" y2="165" />
            <line x1="85" y1="145" x2="75" y2="165" />
            <line x1="55" y1="115" x2="35" y2="125" />
            <line x1="55" y1="85" x2="35" y2="75" />
            <line x1="85" y1="55" x2="75" y2="35" />
        </g>
    </g>

    <!-- Inner core with gradient -->
    <circle cx="100" cy="100" r="25" fill="url(#coreGradient)" />

    <!-- Highlight spot for dimension -->
    <circle cx="85" cy="85" r="8" fill="white" opacity="0.5" />
</svg>